# xmcd
# 
# Track frame offsets:
#     150
#     17062
#     39491
#     52975
#     71252
#     85657
#     102163
#     123488
#     146156
#     157949
#     173285
# 
# Disc length: 2584
# 
# Revision: 1
# Processed by: cddbd v1.5.2PL0 Copyright (c) Steve Scherf et al.
# Submitted via: BonkEnc v1.0.6
# 
DISCID=7e0a160b
DTITLE=Samba Da Virada - Samba Da Virada Ao Vivo
DYEAR=2006
DGENRE=Samba
TTITLE0=Ze Do Caroco - Grupo Revelacao
TTITLE1=Pot-Pourri - Coisinha Do Pai - Vou Festejar - Jorge Aragao
TTITLE2=Trem Das Onze - Fundo De Quintal
TTITLE3=Pot-Pourri - Boca Sem Dente - Bagaco Da Laranja - Arlindo Cruz and Sombrinha
TTITLE4=A Chuva Cai - Beth Carvalho
TTITLE5=Pot-pourri - No Mesmo Manto - Pomba Rolou - Lecy Brandao
TTITLE6=Pot-Pourri - Nao Deixe O Samba Morrer - Pandeiro E Meu Nome - Alcione
TTITLE7=Talisma - Neguinho Da Beija-Flor E Raca Negra
TTITLE8=Gandaia - Art Popular
TTITLE9=Vai Babar - Pique Novo
TTITLE10=Parabens Pra Voce - Fundo De Quintal
EXTD=
EXTT0=
EXTT1=
EXTT2=
EXTT3=
EXTT4=
EXTT5=
EXTT6=
EXTT7=
EXTT8=
EXTT9=
EXTT10=
PLAYORDER=
